<?xml version="1.0" encoding="UTF-8"?>
<svg id="Layer_2" data-name="Layer 2" xmlns="http://www.w3.org/2000/svg" viewBox="0 0 993.75 178.96">
  <defs>
    <style>
      .cls-1 {
        font-family: Montserrat-ExtraLightItalic, Montserrat;
        font-size: 48px;
        font-style: italic;
        font-weight: 200;
      }

      .cls-2 {
        fill: #e53637;
      }

      .cls-3 {
        letter-spacing: 0em;
      }
    </style>
  </defs>
  <g id="Layer_1-2" data-name="Layer 1">
    <g>
      <g>
        <path d="m90.9,1.03v105.9h-11.4V4.63c-5,2.1-9.28,5.45-12.83,10.05-3.55,4.6-6.52,9.93-8.92,15.98-2.4,6.05-4.3,12.58-5.7,19.57-1.4,7-2.47,13.95-3.22,20.85s-1.23,13.45-1.43,19.65c-.2,6.2-.3,11.6-.3,16.2h-1.5L5.1,13.63.9,3.73v103.2h-.9V1.03h12.45l34.2,79.05c.5-5.7,1.2-11.62,2.1-17.77s2.1-12.15,3.6-18,3.35-11.4,5.55-16.65c2.2-5.25,4.88-9.85,8.02-13.8,3.15-3.95,6.77-7.07,10.88-9.38,4.1-2.3,8.8-3.45,14.1-3.45Z"/>
        <path d="m157.35,66.28c-6.4.6-11.65,1.93-15.75,3.98-4.1,2.05-7.48,4.45-10.12,7.2-2.65,2.75-4.73,5.7-6.23,8.85s-2.85,6.08-4.05,8.77c-.7,1.9-1.42,3.65-2.17,5.25-.75,1.6-1.58,2.95-2.48,4.05-.9,1.1-1.95,1.98-3.15,2.62-1.2.65-2.65.92-4.35.82-.5-.1-.9-.18-1.2-.23-.3-.05-.7-.33-1.2-.82-4.1-1.8-5.75-6.15-4.95-13.05.4-3.3,1.12-7.02,2.18-11.17,1.05-4.15,2.48-8.62,4.27-13.42,2-5.4,4.3-11.07,6.9-17.03,2.6-5.95,5.35-11.9,8.25-17.85,2.9-5.95,5.85-11.78,8.85-17.48,3-5.7,5.95-10.95,8.85-15.75h1.05l44.85,105.9h-12.6l-16.95-40.65Zm-22.5-52.35c-2.3,4.4-4.63,8.95-6.97,13.65-2.35,4.7-4.65,9.43-6.9,14.18-2.25,4.75-4.38,9.48-6.38,14.17-2,4.7-3.8,9.2-5.4,13.5-1.8,4.8-3.22,9.25-4.27,13.35-1.05,4.1-1.78,7.75-2.17,10.95-.2,3.1.02,5.73.67,7.88.65,2.15,1.88,3.53,3.68,4.12.5.2.87.33,1.12.38.25.05.57.18.97.38,3,.2,5.25-.82,6.75-3.07s2.85-5.12,4.05-8.62c1.2-2.8,2.6-5.8,4.2-9,1.6-3.2,3.72-6.23,6.38-9.08,2.65-2.85,6.08-5.32,10.28-7.42s9.55-3.45,16.05-4.05l-22.05-51.3Z"/>
        <path d="m239.85,48.43c3.9.9,7.2,2.45,9.9,4.65,2.7,2.2,5.07,4.8,7.12,7.8,2.05,3,3.83,6.28,5.33,9.82,1.5,3.55,3,7.08,4.5,10.58,1.4,3.3,2.82,6.43,4.28,9.38,1.45,2.95,3.02,5.55,4.72,7.8,1.7,2.25,3.55,4.03,5.55,5.33,2,1.3,4.25,1.95,6.75,1.95v1.2c-6.8,0-12.35-.83-16.65-2.48-4.3-1.65-7.7-3.82-10.2-6.52-2.5-2.7-4.33-5.8-5.47-9.3-1.15-3.5-2.05-7.05-2.7-10.65-.65-3.6-1.25-7.15-1.8-10.65-.55-3.5-1.43-6.6-2.62-9.3-1.2-2.7-2.98-4.88-5.33-6.52-2.35-1.65-5.62-2.48-9.83-2.48-7.6,0-13.7-3.6-18.3-10.8-2.6-4.2-4.55-9.35-5.85-15.45v84.15h-11.85V.88h26.4c5.5,0,10.7.43,15.6,1.27,4.9.85,9.17,2.23,12.83,4.12,3.65,1.9,6.52,4.35,8.62,7.35,2.1,3,3.15,6.65,3.15,10.95,0,3.7-.65,6.95-1.95,9.75-1.3,2.8-3.05,5.18-5.25,7.12-2.2,1.95-4.75,3.5-7.65,4.65-2.9,1.15-6,1.93-9.3,2.33Zm12.3-23.85c0-4.3-.8-7.88-2.4-10.73-1.6-2.85-3.7-5.15-6.3-6.9-2.6-1.75-5.62-3-9.08-3.75-3.45-.75-6.97-1.12-10.57-1.12h-14.55v9.3c0,5.5.62,10.4,1.88,14.7,1.25,4.3,2.93,8.1,5.03,11.4,2.1,3.1,4.62,5.62,7.58,7.58,2.95,1.95,6.17,2.92,9.67,2.92h1.05c2.4-.1,4.67-.65,6.83-1.65,2.15-1,4.02-2.45,5.62-4.35,1.6-1.9,2.87-4.3,3.83-7.2.95-2.9,1.42-6.3,1.42-10.2Z"/>
        <path d="m319.5,3.88c-6.4,1.8-11.65,4.93-15.75,9.38-4.1,4.45-7.18,9.58-9.22,15.38-2.05,5.8-3.15,11.92-3.3,18.38-.15,6.45.47,12.52,1.88,18.22,1.6,5.7,4.07,11.3,7.43,16.8,3.35,5.5,7.37,10.25,12.07,14.25,4.7,4,9.92,6.88,15.68,8.62,5.75,1.75,11.82,1.78,18.22.07,4.2-1.1,7.88-2.82,11.03-5.17,3.15-2.35,5.85-5.1,8.1-8.25s4.05-6.6,5.4-10.35c1.35-3.75,2.27-7.67,2.77-11.77v19.05c-3.3,4.2-7.27,7.78-11.92,10.73-4.65,2.95-9.67,5.13-15.08,6.52-7.2,2.1-14.25,2.65-21.15,1.65-6.9-1-13.28-3.2-19.12-6.6-5.85-3.4-10.98-7.9-15.38-13.5-4.4-5.6-7.6-11.95-9.6-19.05-1.8-7.1-2.2-14.15-1.2-21.15,1-7,3.2-13.47,6.6-19.42,3.4-5.95,7.85-11.1,13.35-15.45,5.5-4.35,11.8-7.47,18.9-9.38,4.2-1.1,8.1-1.77,11.7-2.02,3.6-.25,6.95-.2,10.05.15,3.1.35,5.92.95,8.47,1.8,2.55.85,4.82,1.78,6.83,2.77,4.8,2.5,8.8,5.7,12,9.6v15.6c-3.3-6.6-7.35-12.2-12.15-16.8-2-1.9-4.27-3.72-6.82-5.48-2.55-1.75-5.35-3.15-8.4-4.2-3.05-1.05-6.35-1.65-9.9-1.8-3.55-.15-7.38.33-11.47,1.43Z"/>
        <path d="m437.55,106.93h-11.4V1.03h60.45v12c-2.6-2.5-5.13-4.5-7.58-6-2.45-1.5-5.08-2.6-7.88-3.3-2.8-.7-5.92-1.15-9.38-1.35-3.45-.2-7.48-.3-12.08-.3h-12.15v24.3c0,5.1.65,9.28,1.95,12.52,1.3,3.25,3.27,5.77,5.93,7.57,2.65,1.8,5.92,3.03,9.82,3.68,3.9.65,8.45.98,13.65.98v11.85c-2.3-2.5-5-4.45-8.1-5.85-3.1-1.4-6.2-2.93-9.3-4.58-3.1-1.65-5.92-3.67-8.47-6.08-2.55-2.4-4.38-5.8-5.47-10.2v70.65Z"/>
        <path d="m532.2,66.28c-6.4.6-11.65,1.93-15.75,3.98-4.1,2.05-7.48,4.45-10.12,7.2-2.65,2.75-4.73,5.7-6.23,8.85s-2.85,6.08-4.05,8.77c-.7,1.9-1.42,3.65-2.17,5.25-.75,1.6-1.58,2.95-2.47,4.05-.9,1.1-1.95,1.98-3.15,2.62-1.2.65-2.65.92-4.35.82-.5-.1-.9-.18-1.2-.23-.3-.05-.7-.33-1.2-.82-4.1-1.8-5.75-6.15-4.95-13.05.4-3.3,1.12-7.02,2.17-11.17,1.05-4.15,2.48-8.62,4.28-13.42,2-5.4,4.3-11.07,6.9-17.03,2.6-5.95,5.35-11.9,8.25-17.85,2.9-5.95,5.85-11.78,8.85-17.48,3-5.7,5.95-10.95,8.85-15.75h1.05l44.85,105.9h-12.6l-16.95-40.65Zm-22.5-52.35c-2.3,4.4-4.63,8.95-6.98,13.65-2.35,4.7-4.65,9.43-6.9,14.18-2.25,4.75-4.38,9.48-6.38,14.17-2,4.7-3.8,9.2-5.4,13.5-1.8,4.8-3.22,9.25-4.27,13.35-1.05,4.1-1.78,7.75-2.18,10.95-.2,3.1.02,5.73.68,7.88.65,2.15,1.88,3.53,3.67,4.12.5.2.87.33,1.12.38.25.05.57.18.97.38,3,.2,5.25-.82,6.75-3.07s2.85-5.12,4.05-8.62c1.2-2.8,2.6-5.8,4.2-9,1.6-3.2,3.72-6.23,6.38-9.08,2.65-2.85,6.08-5.32,10.28-7.42s9.55-3.45,16.05-4.05l-22.05-51.3Z"/>
        <path d="m572.4,26.53c0-5.6,1.37-10.25,4.12-13.95,2.75-3.7,6.27-6.57,10.57-8.62,4.3-2.05,9.08-3.3,14.33-3.75,5.25-.45,10.37-.17,15.38.83,5,1,9.6,2.65,13.8,4.95,4.2,2.3,7.35,5.2,9.45,8.7v15.75c-3.8-7.7-8.23-13.7-13.27-18-5.05-4.3-10.18-7.25-15.38-8.85-5.2-1.6-10.25-2.02-15.15-1.27-4.9.75-9.05,2.33-12.45,4.73-2.9,1.9-4.9,4.33-6,7.27-1.1,2.95-.8,6.23.9,9.83,1.7,3.6,5.02,7.45,9.97,11.55,4.95,4.1,12.02,8.3,21.23,12.6,4.1,1.8,8.07,3.7,11.92,5.7,3.85,2,7.25,4.33,10.2,6.98,2.95,2.65,5.32,5.65,7.12,9,1.8,3.35,2.7,7.23,2.7,11.62,0,4.1-.78,7.7-2.32,10.8-1.55,3.1-3.68,5.75-6.38,7.95-4.3,3.3-9.48,5.4-15.53,6.3-6.05.9-12.3.7-18.75-.6s-12.7-3.68-18.75-7.12c-6.05-3.45-11.17-7.88-15.38-13.27v-20.85c3.7,9.3,8.37,17.08,14.03,23.32,5.65,6.25,11.62,10.85,17.92,13.8,6.3,2.95,12.57,4.23,18.83,3.82,6.25-.4,11.72-2.6,16.42-6.6,2.5-2.1,4.1-4.58,4.8-7.43.7-2.85.1-6-1.8-9.45-1.9-3.45-5.33-7.12-10.28-11.03-4.95-3.9-11.77-7.85-20.47-11.85-4-1.8-7.9-3.72-11.7-5.78-3.8-2.05-7.2-4.37-10.2-6.97-3-2.6-5.4-5.52-7.2-8.78-1.8-3.25-2.7-7.02-2.7-11.32Z"/>
        <path d="m663.75,106.93h-11.4V1.03h11.4v35.4c0,5.1,1.02,8.75,3.07,10.95,2.05,2.2,4.65,3.6,7.8,4.2,3.15.6,6.65.73,10.5.38,3.85-.35,7.55-.5,11.1-.45,3.55.05,6.77.63,9.67,1.72,2.9,1.1,5,3.4,6.3,6.9V1.03h11.7v105.9h-11.7v-38.7c0-3.8-.58-6.75-1.72-8.85-1.15-2.1-2.73-3.65-4.72-4.65-2-1-4.28-1.6-6.83-1.8-2.55-.2-5.2-.23-7.95-.08-2.75.15-5.55.28-8.4.38-2.85.1-5.5-.05-7.95-.45-2.45-.4-4.63-1.2-6.53-2.4-1.9-1.2-3.35-3.1-4.35-5.7v62.25Z"/>
        <path d="m734.4,1.03h11.4v105.9h-11.4V1.03Z"/>
        <path d="m795.75,2.53c7-2,13.97-2.48,20.93-1.43,6.95,1.05,13.35,3.3,19.2,6.75,5.85,3.45,10.95,7.98,15.3,13.58,4.35,5.6,7.42,11.95,9.22,19.05,2,7,2.5,13.98,1.5,20.93-1,6.95-3.2,13.4-6.6,19.35-3.4,5.95-7.88,11.1-13.43,15.45-5.55,4.35-11.88,7.48-18.97,9.38-7.1,2-14.1,2.5-21,1.5s-13.28-3.2-19.12-6.6c-5.85-3.4-10.98-7.9-15.38-13.5-4.4-5.6-7.55-12-9.45-19.2-1.9-7.1-2.33-14.15-1.27-21.15,1.05-7,3.3-13.45,6.75-19.35,3.45-5.9,7.92-11.02,13.42-15.38,5.5-4.35,11.8-7.47,18.9-9.38Zm.15,1.2c-6.4,1.7-11.62,4.73-15.67,9.08s-7.08,9.43-9.08,15.23c-2,5.8-3.05,11.92-3.15,18.38-.1,6.45.6,12.52,2.1,18.23,1.5,5.7,3.9,11.3,7.2,16.8,3.3,5.5,7.25,10.23,11.85,14.17,4.6,3.95,9.75,6.85,15.45,8.7,5.7,1.85,11.7,1.93,18,.23,6.4-1.6,11.65-4.62,15.75-9.08,4.1-4.45,7.17-9.57,9.22-15.38,2.05-5.8,3.15-11.92,3.3-18.38.15-6.45-.52-12.52-2.02-18.23-1.5-5.8-3.9-11.45-7.2-16.95-3.3-5.5-7.28-10.25-11.92-14.25-4.65-4-9.85-6.87-15.6-8.62-5.75-1.75-11.83-1.73-18.22.07Z"/>
        <path d="m884.39,1.03c4.09,0,7.95.73,11.59,2.17,3.64,1.45,7.03,3.5,10.17,6.15,3.14,2.65,6.03,5.8,8.67,9.45,2.64,3.65,5.06,7.63,7.26,11.92,4.49,8.2,8,17.23,10.54,27.08,2.54,9.85,4.36,19.63,5.46,29.33V1.03h11.4v105.9h-11.4c0-6-.35-12.27-1.05-18.83-.7-6.55-1.75-13.12-3.14-19.72-1.4-6.6-3.11-13.07-5.16-19.43-2.04-6.35-4.46-12.23-7.25-17.62-2.29-4.3-4.74-8.22-7.33-11.77-2.59-3.55-5.44-6.62-8.53-9.23-3.09-2.6-6.41-4.62-9.95-6.07-3.54-1.45-7.3-2.18-11.29-2.18v104.85h-11.4V1.03h11.4Z"/>
      </g>
      <rect class="cls-2" x="968.75" y="82.87" width="25" height="25"/>
      <text class="cls-1" transform="translate(341.43 166.48)"><tspan x="0" y="0">SINCE </tspan><tspan class="cls-3" x="160.46" y="0">2</tspan><tspan x="187.05" y="0">010</tspan></text>
    </g>
  </g>
</svg>